<?xml version="1.0" encoding="utf-8"?>
<!-- Generator: Adobe Illustrator 18.1.0, SVG Export Plug-In . SVG Version: 6.00 Build 0)  -->
<svg version="1.1" id="Layer_1" xmlns="http://www.w3.org/2000/svg" xmlns:xlink="http://www.w3.org/1999/xlink" x="0px" y="0px"
	 viewBox="0 0 16 16" enable-background="new 0 0 16 16" xml:space="preserve">
<rect x="4.5" y="5.6" width="0.3" height="1.2"/>
<rect x="5" y="5.6" width="0.3" height="1.2"/>
<rect x="8" y="5.6" width="0.3" height="1.2"/>
<rect x="8.4" y="5.6" width="0.3" height="1.2"/>
<rect x="11.5" y="5.6" width="0.3" height="1.2"/>
<rect x="11.9" y="5.6" width="0.3" height="1.2"/>
<path id="test" d="M12.8,6.5l-0.1-1.3l0,0V5.1h-1V5h-1V4.9H8.5c0-0.1-0.1-0.2-0.2-0.2c-0.1,0-0.1,0-0.2,0.1C6.6,4.1,5,3.5,3.4,3.1
	L3.3,3C3.2,3,3.2,3.1,3.2,3.1c0,0.1,0.1,0.1,0.1,0.1s0.1,0,0.1-0.1c1.6,0.4,3.2,1,4.8,1.6V5H6.6v0.1H3.8H3.6v1.2H3.5v0.3h0.1v0.8
	l0.5,0.1h0.3h1h0.4C5.9,7.6,6,7.7,6.2,7.7s0.3-0.1,0.4-0.3h1.3h1h1.6c0.1,0.1,0.2,0.3,0.4,0.3s0.3-0.1,0.4-0.3h0.2h1.4L13,7.3V6.9
	L12.8,6.5z M4.3,6.3H3.8V5.5h0.5V6.3z M5.4,7.3h-1V5.5h1V7.3z M6.2,7.6C6.1,7.6,6,7.4,6,7.3S6.1,7,6.2,7s0.3,0.1,0.3,0.3
	S6.3,7.6,6.2,7.6z M6.6,6.3h-1V5.5h1V6.3z M7.7,6.3h-1V5.5h1V6.3z M8.9,7.3h-1V5.5h1V7.3z M10,6.3H9V5.5h1V6.3z M10.8,7.6
	c-0.1,0-0.3-0.1-0.3-0.3S10.7,7,10.8,7s0.3,0.1,0.3,0.3S11,7.6,10.8,7.6z M11.2,6.3h-1V5.5h1V6.3z M12.4,7.3h-1V5.5h1V7.3z
	 M12.5,6.5V5.4h0.2l0.1,1.2h-0.3V6.5z"/>
</svg>
