<?xml version="1.0" encoding="utf-8"?>
<!-- Generator: Adobe Illustrator 18.1.0, SVG Export Plug-In . SVG Version: 6.00 Build 0)  -->
<svg version="1.1" xmlns="http://www.w3.org/2000/svg" xmlns:xlink="http://www.w3.org/1999/xlink" x="0px" y="0px"
	 viewBox="0 0 40 40" enable-background="new 0 0 40 40" xml:space="preserve">
<g id="dust">
	<path fill="#FFFFFF" d="M24.6,6.7C23.9,2.9,20.5,0,16.4,0C11.8,0,8,3.8,8,8.4c0,0.3,0.1,0.5,0.1,0.8c-4,1.2-9.4,4.6-6.3,12.7
		c0,0-0.4-1.1,0,0c-1.1,1.3-1.7,2.9-1.7,4.7c0,1,0.2,1.9,0.6,2.8c0,0.1,0,0.2,0,0.3C0.2,30.6,0,31.6,0,32.6c0,4,3.3,7.3,7.3,7.3
		c2.5,0,4.7-1.3,6.1-3.2c3.5-0.2,6.3-2.7,6.9-6.1c0.6,0.1-0.7-0.1,0,0c9,1.2,13.5-5.3,14-11.9C35,9.4,24.6,6.7,24.6,6.7z M14.7,1.8
		c3.7-1,7.6,1.1,8.6,4.9c0,0.2,0.1,0.3,0.1,0.5c-1.2-3.4-4.9-4.7-8.5-3.7c-3.6,1-5.7,3.9-5,7.5c-0.1-0.2-0.1-0.3-0.2-0.5
		C8.8,6.7,11,2.9,14.7,1.8z M2.1,25.9c-0.4,1.1-0.6,3-0.3,4c-0.5-1-1.5-3.1-0.9-4.8c0.8-2.2,2.9-3.5,4.8-2.9c0.1,0,0.2,0.1,0.2,0.1
		C4.2,21.8,2.8,23.7,2.1,25.9z M4.9,14.2c-2.1,2.3-2.2,4.9-0.4,6.8c-0.1-0.1-0.2-0.1-0.3-0.2c-2.1-1.8-2-5.3,0.2-7.7
		c2.2-2.5,5.6-3,7.6-1.2c0.1,0.1,0.2,0.2,0.3,0.3C10.2,10.7,7,11.9,4.9,14.2z M10.2,23.5c-1.8,1.8-2.5,4.9-2.8,5.9c0,0,0.1,0,0,0
		c-0.1,0,0,0,0,0c0.2-1.1,0.8-5.4,2.3-7c2.1-2.1,5.2-2.4,7-0.7c0.1,0.1,0.1,0.2,0.2,0.2C15.2,20.4,12.2,21.5,10.2,23.5z M18.6,11.5
		c-3.2,1.9-4.6,5-3.2,7.7c-0.1-0.1-0.2-0.2-0.2-0.4c-1.7-2.8-0.4-6.8,3-8.8c3.4-2,7.5-1.4,9.2,1.4c0.1,0.1,0.1,0.3,0.2,0.4
		C25.7,9.4,21.8,9.6,18.6,11.5z"/>
</g>
<g id="Layer_2" display="none">
	<g id="Capa_2" display="inline">
		<circle fill="#FFFFFF" cx="20" cy="8.1" r="8.1"/>
		<circle fill="#FFFFFF" cx="8.1" cy="28.7" r="8.1"/>
		<circle fill="#FFFFFF" cx="31.9" cy="28.7" r="8.1"/>
	</g>
</g>
</svg>
