<?xml version="1.0" encoding="utf-8"?>
<!-- Generator: Adobe Illustrator 18.1.0, SVG Export Plug-In . SVG Version: 6.00 Build 0)  -->
<svg version="1.1" id="Layer_1" xmlns="http://www.w3.org/2000/svg" xmlns:xlink="http://www.w3.org/1999/xlink" x="0px" y="0px"
	 viewBox="0 0 202.3 32.3" enable-background="new 0 0 202.3 32.3" xml:space="preserve">
<g>
	<path fill="#010101" d="M19.9,4.5v15.3c0,2.5-0.8,4.5-2.5,5.8c-1.7,1.4-3.8,2-6.5,2c-2.6,0-4.7-0.7-6.4-2s-2.4-3.3-2.4-5.8V4.5h3.8
		v15.3c0,1.6,0.5,2.8,1.4,3.6c0.9,0.8,2.1,1.2,3.6,1.2c1.6,0,2.8-0.4,3.8-1.2c0.9-0.8,1.4-2,1.4-3.6V4.5H19.9z"/>
	<path fill="#010101" d="M28.2,17.9v9.5h-3.8V4.5h8.5c2.6,0,4.5,0.6,5.9,1.7c1.4,1.2,2.1,2.8,2.1,4.9c0,1.2-0.3,2.2-0.9,3.1
		s-1.5,1.5-2.7,2.1c1.3,0.4,2.2,1.1,2.8,2c0.6,0.9,0.8,2.1,0.8,3.4v1.9c0,0.7,0.1,1.3,0.3,2c0.2,0.6,0.5,1.1,0.8,1.5v0.4h-3.9
		c-0.4-0.3-0.7-0.9-0.8-1.6c-0.1-0.7-0.2-1.5-0.2-2.2v-1.8c0-1.2-0.3-2.1-1-2.8s-1.6-1-2.8-1H28.2z M28.2,14.9h4.4
		c1.5,0,2.6-0.3,3.3-0.9c0.7-0.6,1.1-1.5,1.1-2.7c0-1.2-0.3-2.1-1-2.7c-0.7-0.7-1.7-1-3.2-1h-4.6V14.9z"/>
	<path fill="#010101" d="M45.7,27.4V4.5h7.6c2.5,0,4.5,0.5,5.9,1.6c1.4,1,2.1,2.6,2.1,4.7c0,1-0.3,2-0.9,2.8
		c-0.6,0.8-1.4,1.4-2.5,1.8c1.4,0.3,2.4,1,3.1,2c0.7,1,1.1,2.2,1.1,3.5c0,2.1-0.7,3.8-2.1,4.9c-1.4,1.1-3.3,1.7-5.8,1.7H45.7z
		 M49.6,14.2h4.2c1.2,0,2.1-0.3,2.8-0.8c0.7-0.6,1-1.4,1-2.4c0-1.1-0.4-2-1.1-2.5c-0.7-0.6-1.8-0.8-3.2-0.8h-3.8V14.2z M49.6,17v7.3
		h4.8c1.3,0,2.3-0.3,3-0.9s1.1-1.5,1.1-2.6c0-1.2-0.3-2.2-0.9-2.8c-0.6-0.7-1.5-1-2.8-1H49.6z"/>
	<path fill="#010101" d="M84.2,27.4h-3.8L70.3,10.7l-0.1,0v16.7h-3.8V4.5h3.8l10.1,16.7l0.1,0V4.5h3.8V27.4z"/>
	<path fill="#B9539F" d="M91.8,18.7l-0.3,0v0.1l0.3,0l9.1,3.4v3.8l-13.2-5.8v-3.1l13.2-5.8v3.8L91.8,18.7z"/>
	<path fill="#B9539F" d="M109.2,14.3h2.7c1.2,0,2.1-0.3,2.7-0.9s0.8-1.5,0.8-2.6c0-1.1-0.3-2-0.9-2.6c-0.6-0.6-1.5-0.9-2.6-0.9
		c-1,0-1.9,0.3-2.5,0.9c-0.7,0.6-1,1.4-1,2.3h-3.7l0-0.1c-0.1-1.7,0.6-3.2,2-4.4c1.4-1.2,3.1-1.8,5.2-1.8c2.2,0,4,0.6,5.3,1.7
		c1.3,1.1,2,2.7,2,4.8c0,1-0.3,1.9-0.9,2.8c-0.6,0.9-1.4,1.6-2.5,2.1c1.3,0.5,2.3,1.2,2.9,2.1c0.6,0.9,0.9,2,0.9,3.2
		c0,2.1-0.7,3.7-2.2,4.9c-1.4,1.2-3.3,1.8-5.5,1.8c-2.1,0-3.9-0.6-5.3-1.7s-2.1-2.7-2.1-4.7l0-0.1h3.7c0,1,0.3,1.8,1,2.5
		c0.7,0.6,1.6,0.9,2.7,0.9c1.2,0,2.1-0.3,2.8-1c0.7-0.6,1-1.5,1-2.7c0-1.3-0.3-2.2-0.9-2.8c-0.6-0.6-1.6-0.9-2.9-0.9h-2.7V14.3z"/>
	<path fill="#010101" d="M123.9,27.4V4.5h7.6c2.5,0,4.5,0.5,5.9,1.6c1.4,1,2.1,2.6,2.1,4.7c0,1-0.3,2-0.9,2.8s-1.4,1.4-2.5,1.8
		c1.4,0.3,2.4,1,3.1,2c0.7,1,1.1,2.2,1.1,3.5c0,2.1-0.7,3.8-2.1,4.9s-3.3,1.7-5.8,1.7H123.9z M127.7,14.2h4.2c1.2,0,2.1-0.3,2.8-0.8
		c0.7-0.6,1-1.4,1-2.4c0-1.1-0.4-2-1.1-2.5c-0.7-0.6-1.8-0.8-3.2-0.8h-3.8V14.2z M127.7,17v7.3h4.8c1.3,0,2.3-0.3,3-0.9
		s1.1-1.5,1.1-2.6c0-1.2-0.3-2.2-0.9-2.8c-0.6-0.7-1.5-1-2.8-1H127.7z"/>
	<path fill="#010101" d="M158.3,17.1h-10v7.2h11.6v3.1h-15.4V4.5h15.3v3.1h-11.5v6.5h10V17.1z"/>
	<path fill="#010101" d="M175.5,22.1h-9l-1.8,5.3h-3.9l8.4-22.9h3.6l8.3,22.9h-3.9L175.5,22.1z M167.7,18.9h6.8l-3.3-9.8H171
		L167.7,18.9z"/>
	<path fill="#010101" d="M199.5,7.6h-6.9v19.8h-3.8V7.6h-6.9V4.5h17.6V7.6z"/>
</g>
</svg>
